<svg width="97" height="36" viewBox="0 0 97 36" fill="none" xmlns="http://www.w3.org/2000/svg">
<rect width="97" height="36" rx="18" fill="#15803D"/>
<path d="M31.751 22.434C32.315 22.41 32.807 22.236 33.227 21.912C33.659 21.576 33.989 21.132 34.217 20.58C34.445 20.028 34.559 19.428 34.559 18.78C34.559 17.856 34.343 17.106 33.911 16.53C33.479 15.942 32.897 15.648 32.165 15.648C32.081 15.648 31.943 15.66 31.751 15.684L30.347 15.918V22.488L31.751 22.434ZM28.025 14.28L31.751 13.524C32.027 13.464 32.345 13.434 32.705 13.434C33.533 13.434 34.295 13.65 34.991 14.082C35.699 14.514 36.257 15.114 36.665 15.882C37.085 16.65 37.295 17.52 37.295 18.492C37.295 19.596 37.037 20.616 36.521 21.552C36.005 22.488 35.321 23.232 34.469 23.784C33.617 24.324 32.711 24.594 31.751 24.594H29.285C28.937 24.594 28.637 24.468 28.385 24.216C28.145 23.976 28.025 23.682 28.025 23.334V14.28ZM43.5632 22.596C44.3432 22.596 44.9792 22.29 45.4712 21.678C45.9752 21.066 46.2272 20.178 46.2272 19.014C46.2272 17.934 46.0112 17.118 45.5792 16.566C45.1472 16.002 44.5892 15.72 43.9052 15.72C43.1132 15.72 42.4592 16.026 41.9432 16.638C41.4272 17.25 41.1692 18.138 41.1692 19.302C41.1692 20.382 41.3912 21.204 41.8352 21.768C42.2792 22.32 42.8552 22.596 43.5632 22.596ZM38.7392 19.446C38.7392 18.27 38.9492 17.256 39.3692 16.404C39.8012 15.552 40.3832 14.886 41.1152 14.406C41.8592 13.914 42.6992 13.614 43.6352 13.506C43.9472 13.482 44.1812 13.47 44.3372 13.47C45.2372 13.47 46.0412 13.668 46.7492 14.064C47.4692 14.46 48.0332 15.06 48.4412 15.864C48.8612 16.668 49.0712 17.664 49.0712 18.852C49.0712 20.136 48.8252 21.228 48.3332 22.128C47.8532 23.028 47.1992 23.7 46.3712 24.144C45.5552 24.588 44.6432 24.81 43.6352 24.81C42.6992 24.81 41.8592 24.606 41.1152 24.198C40.3832 23.802 39.8012 23.202 39.3692 22.398C38.9492 21.594 38.7392 20.61 38.7392 19.446ZM56.7534 14.748C56.7534 14.436 56.8554 14.16 57.0594 13.92C57.2754 13.68 57.5394 13.548 57.8514 13.524L59.5434 13.344V24.594H56.7174L52.9734 18.384V24.594H50.5074V14.28L52.9734 14.028L56.7534 20.13V14.748ZM63.7835 18.006L68.3735 17.592V19.824L63.7835 20.094V22.506L68.9675 22.362V23.46C68.9675 23.772 68.8595 24.036 68.6435 24.252C68.4275 24.48 68.1635 24.594 67.8515 24.594H61.3355V14.28L68.9675 13.164V15.414L63.7835 16.008V18.006Z" fill="#FCD34D"/>
</svg>
