<svg width="120" height="120" viewBox="0 0 120 120" fill="none" xmlns="http://www.w3.org/2000/svg">
<path d="M35.4351 88.9969C36.4901 87.9845 37.7462 87.9997 39.4692 89.1091C40.2941 89.6403 41.226 90.4224 42.294 91.4626C44.3731 93.4875 45.0565 95.4564 45.2391 96.8008C45.2958 97.2188 44.82 97.4292 44.5062 97.1472L35.4351 88.9969Z" fill="#E2E8F0"/>
<path d="M44.959 78.397V78.397C47.3882 84.1737 42.4035 90.3283 36.2481 89.1522L35.4351 88.9969M35.4351 88.9969C36.9952 87.4998 38.9952 88.2498 42.294 91.4626C44.3731 93.4875 45.0565 95.4564 45.2391 96.8008C45.2958 97.2188 44.82 97.4292 44.5062 97.1472L35.4351 88.9969Z" stroke="#E2E8F0" stroke-width="2"/>
<path d="M65.7501 92.4998C61.9501 92.4998 60.5001 94.3331 59.0001 95.2498H71.1949C71.6168 95.2498 71.8345 94.7717 71.519 94.4917C70.4872 93.5761 68.6617 92.4998 65.7501 92.4998Z" fill="#E2E8F0"/>
<path d="M59.0001 80.9998V95.2498M59.0001 95.2498C60.5001 94.3331 61.9501 92.4998 65.7501 92.4998C68.6617 92.4998 70.4872 93.5761 71.519 94.4917C71.8345 94.7717 71.6168 95.2498 71.1949 95.2498H59.0001Z" stroke="#E2E8F0" stroke-width="2"/>
<path d="M16.5001 69.6957C22.5147 58.0169 32.6821 39.1012 38.9831 43.0835C46.8593 48.0613 27.5268 63.3777 36.835 69.6957C46.1433 76.0137 54.7355 37.3398 63.1845 43.0834C71.6335 48.8271 55.0219 63.952 61.6093 69.6957C66.8791 74.2906 75.9296 58.1554 83.233 45.7747" stroke="#E2E8F0" stroke-width="24.5454" stroke-linecap="round"/>
<path d="M49.0001 48.4996C50.1386 48.4996 51.2528 49.2636 52.1085 50.6754C52.9584 52.078 53.5001 54.0476 53.5001 56.2496C53.5001 58.4517 52.9584 60.4213 52.1085 61.8239C51.2528 63.2356 50.1386 63.9996 49.0001 63.9996C47.8615 63.9996 46.7473 63.2356 45.8917 61.8239C45.0418 60.4213 44.5001 58.4517 44.5001 56.2496C44.5001 54.0476 45.0418 52.078 45.8917 50.6754C46.7473 49.2636 47.8615 48.4996 49.0001 48.4996Z" fill="white" stroke="#E2E8F0"/>
<path d="M50.7501 51.4999C51.4106 51.4999 52.0866 51.9339 52.6232 52.8007C53.155 53.6597 53.5001 54.878 53.5001 56.2499C53.5001 57.6218 53.155 58.84 52.6232 59.6991C52.0866 60.5658 51.4106 60.9999 50.7501 60.9999C50.0896 60.9999 49.4136 60.5658 48.8771 59.6991C48.3453 58.84 48.0001 57.6218 48.0001 56.2499C48.0001 54.878 48.3453 53.6597 48.8771 52.8007C49.4136 51.9339 50.0896 51.4999 50.7501 51.4999Z" fill="#E2E8F0" stroke="#E2E8F0"/>
<path d="M62 48.4996C63.1386 48.4996 64.2528 49.2636 65.1084 50.6754C65.9583 52.078 66.5 54.0476 66.5 56.2496C66.5 58.4517 65.9583 60.4213 65.1084 61.8239C64.2528 63.2356 63.1386 63.9996 62 63.9996C60.8614 63.9996 59.7472 63.2356 58.8916 61.8239C58.0417 60.4213 57.5 58.4517 57.5 56.2496C57.5 54.0476 58.0417 52.078 58.8916 50.6754C59.7472 49.2636 60.8614 48.4996 62 48.4996Z" fill="white" stroke="#E2E8F0"/>
<path d="M63.75 51.4999C64.4105 51.4999 65.0865 51.9339 65.623 52.8007C66.1548 53.6597 66.5 54.878 66.5 56.2499C66.5 57.6218 66.1548 58.84 65.623 59.6991C65.0865 60.5658 64.4105 60.9999 63.75 60.9999C63.0895 60.9999 62.4135 60.5658 61.877 59.6991C61.3452 58.84 61 57.6218 61 56.2499C61 54.878 61.3452 53.6597 61.877 52.8007C62.4135 51.9339 63.0895 51.4999 63.75 51.4999Z" fill="#E2E8F0" stroke="#E2E8F0"/>
<path d="M88.0852 67.9702C90.7556 68.7636 93.5676 68.6025 95.741 66.2303C100.238 61.3217 92.511 65.345 88.0852 67.9702Z" fill="#E2E8F0"/>
<path d="M80.9581 63.6873C82.5361 65.1822 85.2297 67.1219 88.0852 67.9702M88.0852 67.9702C90.7556 68.7636 93.5676 68.6025 95.741 66.2303C100.238 61.3217 92.511 65.345 88.0852 67.9702Z" stroke="#E2E8F0" stroke-width="2"/>
<g clip-path="url(#clip0_95_2079)">
<path d="M77.7799 23.0758C77.6254 22.5456 77.93 21.9905 78.4603 21.836L92.3813 17.7797C92.9116 17.6252 93.4667 17.9298 93.6212 18.46L113.394 86.322C113.452 86.5194 113.447 86.7298 113.381 86.9245L109.309 98.8661C109.085 99.522 108.278 99.7571 107.737 99.324L97.8883 91.4386C97.7278 91.3101 97.6108 91.1352 97.5533 90.9377L77.7799 23.0758Z" fill="#E2E8F0"/>
<mask id="mask0_95_2079" style="mask-type:alpha" maskUnits="userSpaceOnUse" x="77" y="17" width="37" height="83">
<path d="M77.7799 23.0758C77.6254 22.5456 77.93 21.9905 78.4603 21.836L92.3813 17.7797C92.9116 17.6252 93.4667 17.9298 93.6212 18.46L113.394 86.322C113.452 86.5194 113.447 86.7298 113.381 86.9245L109.309 98.8661C109.085 99.522 108.278 99.7571 107.737 99.324L97.8883 91.4386C97.7278 91.3101 97.6108 91.1352 97.5533 90.9377L77.7799 23.0758Z" fill="#D9D9D9"/>
</mask>
<g mask="url(#mask0_95_2079)">
<path fill-rule="evenodd" clip-rule="evenodd" d="M102.779 101.722L78.8608 19.6357L79.8209 19.356L103.739 101.442L102.779 101.722Z" fill="#CBD5E1"/>
<path fill-rule="evenodd" clip-rule="evenodd" d="M105.659 100.883L81.741 18.7966L82.7011 18.5169L106.619 100.603L105.659 100.883Z" fill="#CBD5E1"/>
<path fill-rule="evenodd" clip-rule="evenodd" d="M108.539 100.044L84.6213 17.9573L85.5814 17.6775L109.499 99.7639L108.539 100.044Z" fill="#CBD5E1"/>
<path fill-rule="evenodd" clip-rule="evenodd" d="M111.419 99.2046L87.5014 17.1182L88.4615 16.8384L112.379 98.9248L111.419 99.2046Z" fill="#CBD5E1"/>
<path fill-rule="evenodd" clip-rule="evenodd" d="M114.3 98.3652L90.3817 16.2788L91.3417 15.9991L115.26 98.0855L114.3 98.3652Z" fill="#CBD5E1"/>
</g>
</g>
<mask id="mask1_95_2079" style="mask-type:alpha" maskUnits="userSpaceOnUse" x="78" y="17" width="36" height="83">
<path d="M78.0734 23.1427C77.9189 22.6125 78.2235 22.0574 78.7537 21.9029L92.1948 17.9865C92.725 17.832 93.2801 18.1366 93.4346 18.6668L113.21 86.5363C113.266 86.7291 113.263 86.9342 113.201 87.1252L109.357 98.9541C109.139 99.6248 108.314 99.8652 107.769 99.4166L98.1728 91.504C98.0179 91.3763 97.9051 91.2049 97.8489 91.0122L78.0734 23.1427Z" fill="#94A3B8"/>
</mask>
<g mask="url(#mask1_95_2079)">
<rect x="103.469" y="98.0803" width="9.69697" height="5.5" transform="rotate(-16.2448 103.469 98.0803)" fill="#94A3B8"/>
</g>
<path d="M89.1666 63.2789C91.9412 63.0293 94.4946 61.8405 95.6377 58.8332C98.0028 52.6102 92.3091 59.204 89.1666 63.2789Z" fill="#E2E8F0"/>
<path d="M80.9614 61.9326C82.9801 62.7386 86.1998 63.5457 89.1666 63.2789M89.1666 63.2789C91.9412 63.0293 94.4946 61.8405 95.6377 58.8332C98.0028 52.6102 92.3091 59.204 89.1666 63.2789Z" stroke="#E2E8F0" stroke-width="2"/>
<defs>
<clipPath id="clip0_95_2079">
<rect width="16.5" height="83.75" fill="white" transform="translate(77.5002 22.1157) rotate(-16.2448)"/>
</clipPath>
</defs>
</svg>
