<svg width="240" height="220" viewBox="0 0 240 220" fill="none" xmlns="http://www.w3.org/2000/svg">
<path d="M135.138 190.104C142.738 190.104 145.638 193.771 148.638 195.604L124.248 195.604C123.404 195.604 122.969 194.648 123.6 194.088C125.664 192.257 129.315 190.104 135.138 190.104Z" fill="#E2E8F0"/>
<path d="M148.638 167.104L148.638 195.604M148.638 195.604C145.638 193.771 142.738 190.104 135.138 190.104C129.315 190.104 125.664 192.257 123.6 194.088C122.969 194.648 123.404 195.604 124.248 195.604L148.638 195.604Z" stroke="#E2E8F0" stroke-width="4"/>
<path d="M94.1379 190.104C101.738 190.104 104.638 193.771 107.638 195.604L83.2481 195.604C82.4045 195.604 81.969 194.648 82.6 194.088C84.6636 192.257 88.3146 190.104 94.1379 190.104Z" fill="#E2E8F0"/>
<path d="M107.638 167.104L107.638 195.604M107.638 195.604C104.638 193.771 101.738 190.104 94.1379 190.104C88.3146 190.104 84.6636 192.257 82.6 194.088C81.969 194.648 82.4045 195.604 83.2481 195.604L107.638 195.604Z" stroke="#E2E8F0" stroke-width="4"/>
<path d="M192.466 144.392C180.437 121.035 160.102 83.2034 147.5 91.1679C131.747 101.124 170.412 131.756 151.796 144.392C133.179 157.028 115.995 79.6805 99.097 91.1679C82.1989 102.655 115.422 132.905 102.247 144.392C91.7077 153.582 73.6067 121.312 59 96.5503" stroke="#E2E8F0" stroke-width="49.0909" stroke-linecap="round"/>
<path d="M92 120C92.4594 118.667 94.6648 116 99.8108 116C104.957 116 108.081 118.667 109 120" stroke="white" stroke-width="3.5" stroke-linecap="round"/>
<path d="M122 120C122.459 118.667 124.665 116 129.811 116C134.957 116 138.081 118.667 139 120" stroke="white" stroke-width="3.5" stroke-linecap="round"/>
<path d="M197 82C197.47 76.4482 188.665 75.196 183.5 75.4999C158 77 180.837 80.0282 197 82Z" fill="#E2E8F0"/>
<path d="M195.618 103.663C221.168 101.619 203.834 85.9742 197 82M197 82C197.47 76.4482 188.665 75.196 183.5 75.4999C158 77 180.837 80.0282 197 82Z" stroke="#E2E8F0" stroke-width="4"/>
<path d="M176.831 38.1936C178.8 32.1397 181.625 30.6925 184.251 31.5467C186.877 32.4008 188.309 35.2329 186.34 41.2869C184.371 47.3408 177.755 51.5167 177.755 51.5167C177.755 51.5167 174.861 44.2475 176.831 38.1936Z" fill="#E2E8F0"/>
<path d="M191.992 48.4104C194.486 46.098 196.18 46.1575 197.183 47.239C198.186 48.3206 198.118 50.0147 195.625 52.3271C193.131 54.6396 188.958 54.8671 188.958 54.8671C188.958 54.8671 189.499 50.7229 191.992 48.4104Z" fill="#E2E8F0"/>
<path d="M195.887 57.1416C198.397 57.1415 199.285 58.024 199.285 59.1127C199.285 60.2015 198.398 61.0841 195.888 61.0843C193.378 61.0844 191.005 59.1133 191.005 59.1133C191.005 59.1133 193.377 57.1418 195.887 57.1416Z" fill="#E2E8F0"/>
<path d="M205.142 51.3662C206.832 51.033 207.555 51.5527 207.71 52.3391C207.865 53.1255 207.393 53.8808 205.703 54.214C204.013 54.5472 202.134 53.4383 202.134 53.4383C202.134 53.4383 203.451 51.6994 205.142 51.3662Z" fill="#E2E8F0"/>
<path d="M39.6073 144.254C34.3814 146.186 28.7484 146.232 24.1011 141.781C14.4844 132.573 30.4316 139.593 39.6073 144.254Z" fill="#E2E8F0"/>
<path d="M61.5 130C58.5461 133.19 45.1951 142.187 39.6073 144.254M39.6073 144.254C34.3814 146.186 28.7484 146.232 24.1011 141.781C14.4844 132.573 30.4316 139.593 39.6073 144.254Z" stroke="#E2E8F0" stroke-width="4"/>
</svg>
