<svg width="120" height="120" viewBox="0 0 120 120" fill="none" xmlns="http://www.w3.org/2000/svg">
<path d="M67.5691 95.0522C71.3691 95.0522 72.8191 96.8856 74.3191 97.8022L62.1242 97.8022C61.7024 97.8022 61.4847 97.3241 61.8002 97.0442C62.832 96.1286 64.6575 95.0522 67.5691 95.0522Z" fill="#E2E8F0"/>
<path d="M74.3191 83.5522L74.3191 97.8022M74.3191 97.8022C72.8191 96.8856 71.3691 95.0522 67.5691 95.0522C64.6575 95.0522 62.832 96.1286 61.8002 97.0442C61.4847 97.3241 61.7024 97.8022 62.1242 97.8022L74.3191 97.8022Z" stroke="#E2E8F0" stroke-width="2"/>
<path d="M47.069 95.0522C50.869 95.0522 52.319 96.8856 53.819 97.8022L41.6242 97.8022C41.2023 97.8022 40.9846 97.3241 41.3001 97.0442C42.3319 96.1286 44.1574 95.0522 47.069 95.0522Z" fill="#E2E8F0"/>
<path d="M53.819 83.5522L53.819 97.8022M53.819 97.8022C52.319 96.8856 50.869 95.0522 47.069 95.0522C44.1574 95.0522 42.3319 96.1286 41.3001 97.0442C40.9846 97.3241 41.2023 97.8022 41.6242 97.8022L53.819 97.8022Z" stroke="#E2E8F0" stroke-width="2"/>
<path d="M96.2329 72.1961C90.2183 60.5174 80.0508 41.6017 73.7499 45.584C65.8737 50.5618 85.2062 65.8781 75.8979 72.1962C66.5897 78.5142 57.9975 39.8403 49.5485 45.5839C41.0995 51.3276 57.7111 66.4525 51.1237 72.1962C45.8538 76.7911 36.8034 60.6559 29.5 48.2752" stroke="#E2E8F0" stroke-width="24.5454" stroke-linecap="round"/>
<path d="M45.9998 60.0002C46.2295 59.3336 47.3322 58.0002 49.9052 58.0002C52.4782 58.0002 54.0403 59.3336 54.4998 60.0002" stroke="white" stroke-width="1.75" stroke-linecap="round"/>
<path d="M60.9998 60.0002C61.2295 59.3336 62.3322 58.0002 64.9052 58.0002C67.4782 58.0002 69.0403 59.3336 69.4998 60.0002" stroke="white" stroke-width="1.75" stroke-linecap="round"/>
<path d="M98.4999 41.0002C98.7349 38.2244 94.3324 37.5982 91.7499 37.7502C79 38.5003 90.4182 40.0144 98.4999 41.0002Z" fill="#E2E8F0"/>
<path d="M97.8089 51.8315C110.584 50.8099 101.917 42.9873 98.4999 41.0002M98.4999 41.0002C98.7349 38.2244 94.3324 37.5982 91.7499 37.7502C79 38.5003 90.4182 40.0144 98.4999 41.0002Z" stroke="#E2E8F0" stroke-width="2"/>
<path d="M88.4155 19.097C89.4001 16.07 90.8125 15.3464 92.1255 15.7735C93.4385 16.2006 94.1549 17.6167 93.1703 20.6436C92.1857 23.6706 88.8776 25.7585 88.8776 25.7585C88.8776 25.7585 87.4309 22.1239 88.4155 19.097Z" fill="#E2E8F0"/>
<path d="M95.9963 24.2051C97.243 23.0489 98.0902 23.0786 98.5917 23.6194C99.0932 24.1602 99.0592 25.0072 97.8125 26.1634C96.5657 27.3197 94.4792 27.4334 94.4792 27.4334C94.4792 27.4334 94.7495 25.3613 95.9963 24.2051Z" fill="#E2E8F0"/>
<path d="M97.9439 28.5709C99.1989 28.5708 99.6425 29.0121 99.6425 29.5564C99.6426 30.1008 99.199 30.5421 97.9441 30.5422C96.6891 30.5423 95.5027 29.5567 95.5027 29.5567C95.5027 29.5567 96.689 28.571 97.9439 28.5709Z" fill="#E2E8F0"/>
<path d="M102.571 25.683C103.416 25.5164 103.778 25.7763 103.855 26.1695C103.933 26.5627 103.697 26.9403 102.852 27.1069C102.007 27.2735 101.067 26.7191 101.067 26.7191C101.067 26.7191 101.726 25.8496 102.571 25.683Z" fill="#E2E8F0"/>
<path d="M19.8034 72.1269C17.1905 73.093 14.374 73.1159 12.0503 70.8908C7.24195 66.2865 15.2156 69.7964 19.8034 72.1269Z" fill="#E2E8F0"/>
<path d="M30.7498 65.0001C29.2728 66.5949 22.5973 71.0938 19.8034 72.1269M19.8034 72.1269C17.1905 73.093 14.374 73.1159 12.0503 70.8908C7.24195 66.2865 15.2156 69.7964 19.8034 72.1269Z" stroke="#E2E8F0" stroke-width="2"/>
</svg>
