<svg width="64" height="64" viewBox="0 0 64 64" fill="none" xmlns="http://www.w3.org/2000/svg">
<path fill-rule="evenodd" clip-rule="evenodd" d="M37.9466 5.3335H26.6666C14.8846 5.3335 5.33331 14.8848 5.33331 26.6668V37.9735C5.33331 49.7556 14.8846 59.3068 26.6666 59.3068H37.9466C49.7287 59.3068 59.28 49.7556 59.28 37.9735V26.6668C59.28 14.8848 49.7287 5.3335 37.9466 5.3335ZM21.6533 16.3202C24.5988 16.3202 26.9866 18.708 26.9866 21.6535C26.9866 24.599 24.5988 26.9868 21.6533 26.9868C18.7078 26.9868 16.32 24.599 16.32 21.6535C16.32 18.708 18.7078 16.3202 21.6533 16.3202ZM41.36 53.6535C48.9097 50.834 53.9231 43.6325 53.9466 35.5735L53.8666 30.9868C53.8666 29.8935 53.6533 27.8402 53.6533 27.8402H49.3066C39.2437 27.8707 30.0548 33.5634 25.5466 42.5602C22.2744 39.6349 18.0424 38.0124 13.6533 38.0002H10.4266C10.1886 44.1995 13.5557 49.9776 19.0666 52.8268C21.0367 53.8763 23.2345 54.4257 25.4666 54.4268H36.5866C38.2107 54.4501 39.8263 54.1883 41.36 53.6535Z" fill="#E2E8F0"/>
</svg>
