<svg width="71" height="40" viewBox="0 0 71 40" fill="none" xmlns="http://www.w3.org/2000/svg">
<path d="M14 27.6755C17.8755 20.1502 24.427 7.96164 28.4871 10.5276C33.5622 13.7352 21.1052 23.6044 27.103 27.6755C33.1009 31.7466 38.6373 6.82664 44.0815 10.5276C49.5258 14.2286 38.8219 23.9745 43.0665 27.6755C46.4622 30.6363 52.294 20.2394 57 12.2617" stroke="#6500C3" stroke-width="15.8161" stroke-linecap="round"/>
<path d="M34.9416 14.0177C35.6752 14.0177 36.3932 14.5095 36.9445 15.4191C37.4923 16.3228 37.841 17.5928 37.841 19.0118C37.8409 20.4307 37.4922 21.7 36.9445 22.6036C36.3932 23.5133 35.6752 24.005 34.9416 24.005C34.208 24.005 33.49 23.5133 32.9387 22.6036C32.391 21.7 32.0422 20.4307 32.0422 19.0118C32.0422 17.5928 32.3909 16.3228 32.9387 15.4191C33.4899 14.5095 34.208 14.0178 34.9416 14.0177Z" fill="white" stroke="#0F172A" stroke-width="0.64436"/>
<path d="M36.0689 15.9507C36.4945 15.9507 36.9302 16.2303 37.2759 16.7886C37.6186 17.3421 37.8414 18.1273 37.8414 19.0112C37.8414 19.8952 37.6186 20.6803 37.2759 21.2339C36.9302 21.7923 36.4945 22.0718 36.0689 22.0718C35.6435 22.0716 35.2084 21.792 34.8629 21.2339C34.5202 20.6803 34.2974 19.8952 34.2974 19.0112C34.2974 18.1273 34.5202 17.3421 34.8629 16.7886C35.2084 16.2305 35.6435 15.9509 36.0689 15.9507Z" fill="#0F172A" stroke="#0F172A" stroke-width="0.64436"/>
<path d="M43.3183 14.0177C44.0519 14.0177 44.7699 14.5095 45.3212 15.4191C45.869 16.3228 46.2177 17.5928 46.2177 19.0118C46.2176 20.4307 45.8689 21.7 45.3212 22.6036C44.7699 23.5133 44.0519 24.005 43.3183 24.005C42.5847 24.005 41.8667 23.5133 41.3154 22.6036C40.7677 21.7 40.419 20.4307 40.4189 19.0118C40.4189 17.5928 40.7676 16.3228 41.3154 15.4191C41.8667 14.5095 42.5847 14.0178 43.3183 14.0177Z" fill="white" stroke="#0F172A" stroke-width="0.64436"/>
<path d="M44.4456 15.9507C44.8712 15.9507 45.3069 16.2303 45.6526 16.7886C45.9953 17.3421 46.2181 18.1273 46.2181 19.0112C46.2181 19.8952 45.9953 20.6803 45.6526 21.2339C45.3069 21.7923 44.8712 22.0718 44.4456 22.0718C44.0202 22.0716 43.5852 21.792 43.2396 21.2339C42.8969 20.6803 42.6741 19.8952 42.6741 19.0112C42.6741 18.1273 42.8969 17.3421 43.2396 16.7886C43.5851 16.2305 44.0202 15.9509 44.4456 15.9507Z" fill="#0F172A" stroke="#0F172A" stroke-width="0.64436"/>
</svg>
