<svg width="696" height="426" viewBox="0 0 696 426" fill="none" xmlns="http://www.w3.org/2000/svg">
<g clip-path="url(#clip0_106_2948)">
<rect width="696" height="426" fill="#FEFCE8"/>
<rect x="-6.10352e-05" y="65" width="696" height="311" fill="#FEFCE8"/>
<path d="M696 150L-21.3428 150" stroke="#FEF3C7" stroke-width="2"/>
<path d="M696 182L-21.3428 182" stroke="#FEF3C7" stroke-width="2"/>
<path d="M696 246L-21.3428 246" stroke="#FEF3C7" stroke-width="2"/>
<path d="M696 310L-21.3428 310" stroke="#FEF3C7" stroke-width="2"/>
<path d="M696 374L-21.3428 374" stroke="#FEF3C7" stroke-width="2"/>
<path d="M696 278L-21.3428 278" stroke="#FEF3C7" stroke-width="2"/>
<path d="M696 406L-21.3428 406" stroke="#FEF3C7" stroke-width="2"/>
<path d="M696 118L-21.3428 118" stroke="#FEF3C7" stroke-width="2"/>
<path d="M696 86L-21.3428 86" stroke="#FEF3C7" stroke-width="2"/>
<path d="M696 54L-21.3427 54" stroke="#FEF3C7" stroke-width="2"/>
<path d="M696 22L-21.3426 22" stroke="#FEF3C7" stroke-width="2"/>
<path d="M696 214L-21.3428 214" stroke="#FEF3C7" stroke-width="2"/>
<path d="M696 342L-21.3428 342" stroke="#FEF3C7" stroke-width="2"/>
</g>
<defs>
<clipPath id="clip0_106_2948">
<rect width="696" height="426" fill="white"/>
</clipPath>
</defs>
</svg>
